<svg xmlns="http://www.w3.org/2000/svg" viewBox="0 0 980 520">
  <rect width="980" height="520" fill="#0d1117" rx="0"/>
  <text x="420" y="36" text-anchor="middle" font-family="monospace" font-size="16" font-weight="bold" fill="#e6edf3">ChaosTree — Read-Heavy (8 Thr) Latency</text>
  <text x="22" y="250" text-anchor="middle" font-family="monospace" font-size="12" fill="#e6edf3" transform="rotate(-90, 22, 250)">Latency (ns/op)</text>
  <line x1="80" y1="440.00" x2="760" y2="440.00" stroke="#30363d" stroke-width="1" opacity="1"/>
  <text x="72" y="444.00" text-anchor="end" font-family="monospace" font-size="10" fill="#e6edf3">0</text>
  <line x1="80" y1="364.00" x2="760" y2="364.00" stroke="#30363d" stroke-width="1" opacity="0.4"/>
  <text x="72" y="368.00" text-anchor="end" font-family="monospace" font-size="10" fill="#e6edf3">500</text>
  <line x1="80" y1="288.00" x2="760" y2="288.00" stroke="#30363d" stroke-width="1" opacity="0.4"/>
  <text x="72" y="292.00" text-anchor="end" font-family="monospace" font-size="10" fill="#e6edf3">1000</text>
  <line x1="80" y1="212.00" x2="760" y2="212.00" stroke="#30363d" stroke-width="1" opacity="0.4"/>
  <text x="72" y="216.00" text-anchor="end" font-family="monospace" font-size="10" fill="#e6edf3">1500</text>
  <line x1="80" y1="136.00" x2="760" y2="136.00" stroke="#30363d" stroke-width="1" opacity="0.4"/>
  <text x="72" y="140.00" text-anchor="end" font-family="monospace" font-size="10" fill="#e6edf3">2000</text>
  <line x1="80" y1="60.00" x2="760" y2="60.00" stroke="#30363d" stroke-width="1" opacity="0.4"/>
  <text x="72" y="64.00" text-anchor="end" font-family="monospace" font-size="10" fill="#e6edf3">2500</text>
  <line x1="80" y1="60" x2="80" y2="440" stroke="#484f58" stroke-width="1"/>
  <line x1="80" y1="440" x2="760" y2="440" stroke="#484f58" stroke-width="1"/>
  <text x="193.33" y="460" text-anchor="middle" font-family="monospace" font-size="11" fill="#e6edf3">AVL</text>
  <rect x="164.33" y="230.74" width="18" height="209.26" fill="#4C9BE8" opacity="0.5" rx="2"/>
  <text x="173.33" y="225.74" text-anchor="middle" font-family="monospace" font-size="8" fill="#e6edf3">1376.74</text>
  <rect x="184.33" y="210.53" width="18" height="229.47" fill="#4C9BE8" opacity="0.75" rx="2"/>
  <text x="193.33" y="205.53" text-anchor="middle" font-family="monospace" font-size="8" fill="#e6edf3">1509.65</text>
  <rect x="204.33" y="94.17" width="18" height="345.83" fill="#4C9BE8" opacity="1.0" rx="2"/>
  <text x="213.33" y="89.17" text-anchor="middle" font-family="monospace" font-size="8" fill="#e6edf3">2275.17</text>
  <text x="420.00" y="460" text-anchor="middle" font-family="monospace" font-size="11" fill="#e6edf3">RBT</text>
  <rect x="391.00" y="195.19" width="18" height="244.81" fill="#4CAF50" opacity="0.5" rx="2"/>
  <text x="400.00" y="190.19" text-anchor="middle" font-family="monospace" font-size="8" fill="#e6edf3">1610.62</text>
  <rect x="411.00" y="199.86" width="18" height="240.14" fill="#4CAF50" opacity="0.75" rx="2"/>
  <text x="420.00" y="194.86" text-anchor="middle" font-family="monospace" font-size="8" fill="#e6edf3">1579.88</text>
  <rect x="431.00" y="115.60" width="18" height="324.40" fill="#4CAF50" opacity="1.0" rx="2"/>
  <text x="440.00" y="110.60" text-anchor="middle" font-family="monospace" font-size="8" fill="#e6edf3">2134.20</text>
  <text x="646.67" y="460" text-anchor="middle" font-family="monospace" font-size="11" fill="#e6edf3">Treap</text>
  <rect x="617.67" y="232.27" width="18" height="207.73" fill="#FFA726" opacity="0.5" rx="2"/>
  <text x="626.67" y="227.27" text-anchor="middle" font-family="monospace" font-size="8" fill="#e6edf3">1366.61</text>
  <rect x="637.67" y="221.73" width="18" height="218.27" fill="#FFA726" opacity="0.75" rx="2"/>
  <text x="646.67" y="216.73" text-anchor="middle" font-family="monospace" font-size="8" fill="#e6edf3">1436.02</text>
  <rect x="657.67" y="109.10" width="18" height="330.90" fill="#FFA726" opacity="1.0" rx="2"/>
  <text x="666.67" y="104.10" text-anchor="middle" font-family="monospace" font-size="8" fill="#e6edf3">2176.99</text>
  <text x="800" y="78" font-family="monospace" font-size="10" font-weight="bold" fill="#e6edf3">Trees</text>
  <rect x="800" y="90" width="10" height="10" fill="#4C9BE8" rx="1"/>
  <text x="816" y="99" font-family="monospace" font-size="10" fill="#e6edf3">AVL</text>
  <rect x="800" y="108" width="10" height="10" fill="#4CAF50" rx="1"/>
  <text x="816" y="117" font-family="monospace" font-size="10" fill="#e6edf3">RBT</text>
  <rect x="800" y="126" width="10" height="10" fill="#FFA726" rx="1"/>
  <text x="816" y="135" font-family="monospace" font-size="10" fill="#e6edf3">Treap</text>
  <text x="800" y="210" font-family="monospace" font-size="10" font-weight="bold" fill="#e6edf3">Scale</text>
  <rect x="800" y="222" width="10" height="10" fill="#C0C0C0" opacity="0.5" rx="1"/>
  <text x="816" y="231" font-family="monospace" font-size="10" fill="#e6edf3">1k</text>
  <rect x="800" y="240" width="10" height="10" fill="#C0C0C0" opacity="0.75" rx="1"/>
  <text x="816" y="249" font-family="monospace" font-size="10" fill="#e6edf3">10k</text>
  <rect x="800" y="258" width="10" height="10" fill="#C0C0C0" opacity="1.0" rx="1"/>
  <text x="816" y="267" font-family="monospace" font-size="10" fill="#e6edf3">100k</text>
</svg>