<svg xmlns="http://www.w3.org/2000/svg" viewBox="0 0 980 520">
  <rect width="980" height="520" fill="#0d1117" rx="0"/>
  <text x="420" y="36" text-anchor="middle" font-family="monospace" font-size="16" font-weight="bold" fill="#e6edf3">ChaosTree — Write-Heavy (8 Thr) Branch Misses</text>
  <text x="22" y="250" text-anchor="middle" font-family="monospace" font-size="12" fill="#e6edf3" transform="rotate(-90, 22, 250)">Branch Misses / op</text>
  <line x1="80" y1="440.00" x2="760" y2="440.00" stroke="#30363d" stroke-width="1" opacity="1"/>
  <text x="72" y="444.00" text-anchor="end" font-family="monospace" font-size="10" fill="#e6edf3">0</text>
  <line x1="80" y1="376.67" x2="760" y2="376.67" stroke="#30363d" stroke-width="1" opacity="0.4"/>
  <text x="72" y="380.67" text-anchor="end" font-family="monospace" font-size="10" fill="#e6edf3">10</text>
  <line x1="80" y1="313.33" x2="760" y2="313.33" stroke="#30363d" stroke-width="1" opacity="0.4"/>
  <text x="72" y="317.33" text-anchor="end" font-family="monospace" font-size="10" fill="#e6edf3">20</text>
  <line x1="80" y1="250.00" x2="760" y2="250.00" stroke="#30363d" stroke-width="1" opacity="0.4"/>
  <text x="72" y="254.00" text-anchor="end" font-family="monospace" font-size="10" fill="#e6edf3">30</text>
  <line x1="80" y1="186.67" x2="760" y2="186.67" stroke="#30363d" stroke-width="1" opacity="0.4"/>
  <text x="72" y="190.67" text-anchor="end" font-family="monospace" font-size="10" fill="#e6edf3">40</text>
  <line x1="80" y1="123.33" x2="760" y2="123.33" stroke="#30363d" stroke-width="1" opacity="0.4"/>
  <text x="72" y="127.33" text-anchor="end" font-family="monospace" font-size="10" fill="#e6edf3">50</text>
  <line x1="80" y1="60.00" x2="760" y2="60.00" stroke="#30363d" stroke-width="1" opacity="0.4"/>
  <text x="72" y="64.00" text-anchor="end" font-family="monospace" font-size="10" fill="#e6edf3">60</text>
  <line x1="80" y1="60" x2="80" y2="440" stroke="#484f58" stroke-width="1"/>
  <line x1="80" y1="440" x2="760" y2="440" stroke="#484f58" stroke-width="1"/>
  <text x="193.33" y="460" text-anchor="middle" font-family="monospace" font-size="11" fill="#e6edf3">AVL</text>
  <rect x="164.33" y="273.10" width="18" height="166.90" fill="#4C9BE8" opacity="0.5" rx="2"/>
  <text x="173.33" y="268.10" text-anchor="middle" font-family="monospace" font-size="8" fill="#e6edf3">26.35</text>
  <rect x="184.33" y="223.46" width="18" height="216.54" fill="#4C9BE8" opacity="0.75" rx="2"/>
  <text x="193.33" y="218.46" text-anchor="middle" font-family="monospace" font-size="8" fill="#e6edf3">34.19</text>
  <rect x="204.33" y="195.36" width="18" height="244.64" fill="#4C9BE8" opacity="1.0" rx="2"/>
  <text x="213.33" y="190.36" text-anchor="middle" font-family="monospace" font-size="8" fill="#e6edf3">38.63</text>
  <text x="420.00" y="460" text-anchor="middle" font-family="monospace" font-size="11" fill="#e6edf3">RBT</text>
  <rect x="391.00" y="257.71" width="18" height="182.29" fill="#4CAF50" opacity="0.5" rx="2"/>
  <text x="400.00" y="252.71" text-anchor="middle" font-family="monospace" font-size="8" fill="#e6edf3">28.78</text>
  <rect x="411.00" y="210.18" width="18" height="229.82" fill="#4CAF50" opacity="0.75" rx="2"/>
  <text x="420.00" y="205.18" text-anchor="middle" font-family="monospace" font-size="8" fill="#e6edf3">36.29</text>
  <rect x="431.00" y="181.27" width="18" height="258.73" fill="#4CAF50" opacity="1.0" rx="2"/>
  <text x="440.00" y="176.27" text-anchor="middle" font-family="monospace" font-size="8" fill="#e6edf3">40.85</text>
  <text x="646.67" y="460" text-anchor="middle" font-family="monospace" font-size="11" fill="#e6edf3">Treap</text>
  <rect x="617.67" y="226.73" width="18" height="213.27" fill="#FFA726" opacity="0.5" rx="2"/>
  <text x="626.67" y="221.73" text-anchor="middle" font-family="monospace" font-size="8" fill="#e6edf3">33.67</text>
  <rect x="637.67" y="187.51" width="18" height="252.49" fill="#FFA726" opacity="0.75" rx="2"/>
  <text x="646.67" y="182.51" text-anchor="middle" font-family="monospace" font-size="8" fill="#e6edf3">39.87</text>
  <rect x="657.67" y="109.10" width="18" height="330.90" fill="#FFA726" opacity="1.0" rx="2"/>
  <text x="666.67" y="104.10" text-anchor="middle" font-family="monospace" font-size="8" fill="#e6edf3">52.25</text>
  <text x="800" y="78" font-family="monospace" font-size="10" font-weight="bold" fill="#e6edf3">Trees</text>
  <rect x="800" y="90" width="10" height="10" fill="#4C9BE8" rx="1"/>
  <text x="816" y="99" font-family="monospace" font-size="10" fill="#e6edf3">AVL</text>
  <rect x="800" y="108" width="10" height="10" fill="#4CAF50" rx="1"/>
  <text x="816" y="117" font-family="monospace" font-size="10" fill="#e6edf3">RBT</text>
  <rect x="800" y="126" width="10" height="10" fill="#FFA726" rx="1"/>
  <text x="816" y="135" font-family="monospace" font-size="10" fill="#e6edf3">Treap</text>
  <text x="800" y="210" font-family="monospace" font-size="10" font-weight="bold" fill="#e6edf3">Scale</text>
  <rect x="800" y="222" width="10" height="10" fill="#C0C0C0" opacity="0.5" rx="1"/>
  <text x="816" y="231" font-family="monospace" font-size="10" fill="#e6edf3">1k</text>
  <rect x="800" y="240" width="10" height="10" fill="#C0C0C0" opacity="0.75" rx="1"/>
  <text x="816" y="249" font-family="monospace" font-size="10" fill="#e6edf3">10k</text>
  <rect x="800" y="258" width="10" height="10" fill="#C0C0C0" opacity="1.0" rx="1"/>
  <text x="816" y="267" font-family="monospace" font-size="10" fill="#e6edf3">100k</text>
</svg>