<svg xmlns="http://www.w3.org/2000/svg" viewBox="0 0 980 520">
  <rect width="980" height="520" fill="#0d1117" rx="0"/>
  <text x="420" y="36" text-anchor="middle" font-family="monospace" font-size="16" font-weight="bold" fill="#e6edf3">ChaosTree — Single-Thread Branch Misses</text>
  <text x="22" y="250" text-anchor="middle" font-family="monospace" font-size="12" fill="#e6edf3" transform="rotate(-90, 22, 250)">Branch Misses / op</text>
  <line x1="80" y1="440.00" x2="760" y2="440.00" stroke="#30363d" stroke-width="1" opacity="1"/>
  <text x="72" y="444.00" text-anchor="end" font-family="monospace" font-size="10" fill="#e6edf3">0</text>
  <line x1="80" y1="364.00" x2="760" y2="364.00" stroke="#30363d" stroke-width="1" opacity="0.4"/>
  <text x="72" y="368.00" text-anchor="end" font-family="monospace" font-size="10" fill="#e6edf3">20</text>
  <line x1="80" y1="288.00" x2="760" y2="288.00" stroke="#30363d" stroke-width="1" opacity="0.4"/>
  <text x="72" y="292.00" text-anchor="end" font-family="monospace" font-size="10" fill="#e6edf3">40</text>
  <line x1="80" y1="212.00" x2="760" y2="212.00" stroke="#30363d" stroke-width="1" opacity="0.4"/>
  <text x="72" y="216.00" text-anchor="end" font-family="monospace" font-size="10" fill="#e6edf3">60</text>
  <line x1="80" y1="136.00" x2="760" y2="136.00" stroke="#30363d" stroke-width="1" opacity="0.4"/>
  <text x="72" y="140.00" text-anchor="end" font-family="monospace" font-size="10" fill="#e6edf3">80</text>
  <line x1="80" y1="60.00" x2="760" y2="60.00" stroke="#30363d" stroke-width="1" opacity="0.4"/>
  <text x="72" y="64.00" text-anchor="end" font-family="monospace" font-size="10" fill="#e6edf3">100</text>
  <line x1="80" y1="60" x2="80" y2="440" stroke="#484f58" stroke-width="1"/>
  <line x1="80" y1="440" x2="760" y2="440" stroke="#484f58" stroke-width="1"/>
  <text x="148.00" y="460" text-anchor="middle" font-family="monospace" font-size="11" fill="#e6edf3">AVL</text>
  <rect x="119.00" y="439.95" width="18" height="0.05" fill="#4C9BE8" opacity="0.5" rx="2"/>
  <rect x="139.00" y="439.94" width="18" height="0.06" fill="#4C9BE8" opacity="0.75" rx="2"/>
  <rect x="159.00" y="439.88" width="18" height="0.12" fill="#4C9BE8" opacity="1.0" rx="2"/>
  <text x="284.00" y="460" text-anchor="middle" font-family="monospace" font-size="11" fill="#e6edf3">BST</text>
  <rect x="255.00" y="439.95" width="18" height="0.05" fill="#EF5350" opacity="0.5" rx="2"/>
  <rect x="275.00" y="439.96" width="18" height="0.04" fill="#EF5350" opacity="0.75" rx="2"/>
  <rect x="295.00" y="439.95" width="18" height="0.05" fill="#EF5350" opacity="1.0" rx="2"/>
  <text x="420.00" y="460" text-anchor="middle" font-family="monospace" font-size="11" fill="#e6edf3">RBT</text>
  <rect x="391.00" y="439.97" width="18" height="0.03" fill="#4CAF50" opacity="0.5" rx="2"/>
  <rect x="411.00" y="439.98" width="18" height="0.02" fill="#4CAF50" opacity="0.75" rx="2"/>
  <rect x="431.00" y="439.94" width="18" height="0.06" fill="#4CAF50" opacity="1.0" rx="2"/>
  <text x="556.00" y="460" text-anchor="middle" font-family="monospace" font-size="11" fill="#e6edf3">Splay</text>
  <rect x="527.00" y="320.11" width="18" height="119.89" fill="#CE93D8" opacity="0.5" rx="2"/>
  <text x="536.00" y="315.11" text-anchor="middle" font-family="monospace" font-size="8" fill="#e6edf3">31.55</text>
  <rect x="547.00" y="267.63" width="18" height="172.37" fill="#CE93D8" opacity="0.75" rx="2"/>
  <text x="556.00" y="262.63" text-anchor="middle" font-family="monospace" font-size="8" fill="#e6edf3">45.36</text>
  <rect x="567.00" y="103.85" width="18" height="336.15" fill="#CE93D8" opacity="1.0" rx="2"/>
  <text x="576.00" y="98.85" text-anchor="middle" font-family="monospace" font-size="8" fill="#e6edf3">88.46</text>
  <text x="692.00" y="460" text-anchor="middle" font-family="monospace" font-size="11" fill="#e6edf3">Treap</text>
  <rect x="663.00" y="437.21" width="18" height="2.79" fill="#FFA726" opacity="0.5" rx="2"/>
  <rect x="683.00" y="437.35" width="18" height="2.65" fill="#FFA726" opacity="0.75" rx="2"/>
  <rect x="703.00" y="439.06" width="18" height="0.94" fill="#FFA726" opacity="1.0" rx="2"/>
  <text x="800" y="78" font-family="monospace" font-size="10" font-weight="bold" fill="#e6edf3">Trees</text>
  <rect x="800" y="90" width="10" height="10" fill="#4C9BE8" rx="1"/>
  <text x="816" y="99" font-family="monospace" font-size="10" fill="#e6edf3">AVL</text>
  <rect x="800" y="108" width="10" height="10" fill="#EF5350" rx="1"/>
  <text x="816" y="117" font-family="monospace" font-size="10" fill="#e6edf3">BST</text>
  <rect x="800" y="126" width="10" height="10" fill="#4CAF50" rx="1"/>
  <text x="816" y="135" font-family="monospace" font-size="10" fill="#e6edf3">RBT</text>
  <rect x="800" y="144" width="10" height="10" fill="#CE93D8" rx="1"/>
  <text x="816" y="153" font-family="monospace" font-size="10" fill="#e6edf3">Splay</text>
  <rect x="800" y="162" width="10" height="10" fill="#FFA726" rx="1"/>
  <text x="816" y="171" font-family="monospace" font-size="10" fill="#e6edf3">Treap</text>
  <text x="800" y="210" font-family="monospace" font-size="10" font-weight="bold" fill="#e6edf3">Scale</text>
  <rect x="800" y="222" width="10" height="10" fill="#C0C0C0" opacity="0.5" rx="1"/>
  <text x="816" y="231" font-family="monospace" font-size="10" fill="#e6edf3">1k</text>
  <rect x="800" y="240" width="10" height="10" fill="#C0C0C0" opacity="0.75" rx="1"/>
  <text x="816" y="249" font-family="monospace" font-size="10" fill="#e6edf3">10k</text>
  <rect x="800" y="258" width="10" height="10" fill="#C0C0C0" opacity="1.0" rx="1"/>
  <text x="816" y="267" font-family="monospace" font-size="10" fill="#e6edf3">100k</text>
</svg>