<svg xmlns="http://www.w3.org/2000/svg" viewBox="0 0 980 520">
  <rect width="980" height="520" fill="#0d1117" rx="0"/>
  <text x="420" y="36" text-anchor="middle" font-family="monospace" font-size="16" font-weight="bold" fill="#e6edf3">ChaosTree — Read-Heavy (8 Thr) Branch Misses</text>
  <text x="22" y="250" text-anchor="middle" font-family="monospace" font-size="12" fill="#e6edf3" transform="rotate(-90, 22, 250)">Branch Misses / op</text>
  <line x1="80" y1="440.00" x2="760" y2="440.00" stroke="#30363d" stroke-width="1" opacity="1"/>
  <text x="72" y="444.00" text-anchor="end" font-family="monospace" font-size="10" fill="#e6edf3">0</text>
  <line x1="80" y1="364.00" x2="760" y2="364.00" stroke="#30363d" stroke-width="1" opacity="0.4"/>
  <text x="72" y="368.00" text-anchor="end" font-family="monospace" font-size="10" fill="#e6edf3">2</text>
  <line x1="80" y1="288.00" x2="760" y2="288.00" stroke="#30363d" stroke-width="1" opacity="0.4"/>
  <text x="72" y="292.00" text-anchor="end" font-family="monospace" font-size="10" fill="#e6edf3">4</text>
  <line x1="80" y1="212.00" x2="760" y2="212.00" stroke="#30363d" stroke-width="1" opacity="0.4"/>
  <text x="72" y="216.00" text-anchor="end" font-family="monospace" font-size="10" fill="#e6edf3">6</text>
  <line x1="80" y1="136.00" x2="760" y2="136.00" stroke="#30363d" stroke-width="1" opacity="0.4"/>
  <text x="72" y="140.00" text-anchor="end" font-family="monospace" font-size="10" fill="#e6edf3">8</text>
  <line x1="80" y1="60.00" x2="760" y2="60.00" stroke="#30363d" stroke-width="1" opacity="0.4"/>
  <text x="72" y="64.00" text-anchor="end" font-family="monospace" font-size="10" fill="#e6edf3">10</text>
  <line x1="80" y1="60" x2="80" y2="440" stroke="#484f58" stroke-width="1"/>
  <line x1="80" y1="440" x2="760" y2="440" stroke="#484f58" stroke-width="1"/>
  <text x="193.33" y="460" text-anchor="middle" font-family="monospace" font-size="11" fill="#e6edf3">AVL</text>
  <rect x="164.33" y="243.96" width="18" height="196.04" fill="#4C9BE8" opacity="0.5" rx="2"/>
  <text x="173.33" y="238.96" text-anchor="middle" font-family="monospace" font-size="8" fill="#e6edf3">5.16</text>
  <rect x="184.33" y="168.41" width="18" height="271.59" fill="#4C9BE8" opacity="0.75" rx="2"/>
  <text x="193.33" y="163.41" text-anchor="middle" font-family="monospace" font-size="8" fill="#e6edf3">7.15</text>
  <rect x="204.33" y="97.28" width="18" height="342.72" fill="#4C9BE8" opacity="1.0" rx="2"/>
  <text x="213.33" y="92.28" text-anchor="middle" font-family="monospace" font-size="8" fill="#e6edf3">9.02</text>
  <text x="420.00" y="460" text-anchor="middle" font-family="monospace" font-size="11" fill="#e6edf3">RBT</text>
  <rect x="391.00" y="254.60" width="18" height="185.40" fill="#4CAF50" opacity="0.5" rx="2"/>
  <text x="400.00" y="249.60" text-anchor="middle" font-family="monospace" font-size="8" fill="#e6edf3">4.88</text>
  <rect x="411.00" y="183.16" width="18" height="256.84" fill="#4CAF50" opacity="0.75" rx="2"/>
  <text x="420.00" y="178.16" text-anchor="middle" font-family="monospace" font-size="8" fill="#e6edf3">6.76</text>
  <rect x="431.00" y="107.54" width="18" height="332.46" fill="#4CAF50" opacity="1.0" rx="2"/>
  <text x="440.00" y="102.54" text-anchor="middle" font-family="monospace" font-size="8" fill="#e6edf3">8.75</text>
  <text x="646.67" y="460" text-anchor="middle" font-family="monospace" font-size="11" fill="#e6edf3">Treap</text>
  <rect x="617.67" y="269.08" width="18" height="170.92" fill="#FFA726" opacity="0.5" rx="2"/>
  <text x="626.67" y="264.08" text-anchor="middle" font-family="monospace" font-size="8" fill="#e6edf3">4.50</text>
  <rect x="637.67" y="191.59" width="18" height="248.41" fill="#FFA726" opacity="0.75" rx="2"/>
  <text x="646.67" y="186.59" text-anchor="middle" font-family="monospace" font-size="8" fill="#e6edf3">6.54</text>
  <rect x="657.67" y="91.20" width="18" height="348.80" fill="#FFA726" opacity="1.0" rx="2"/>
  <text x="666.67" y="86.20" text-anchor="middle" font-family="monospace" font-size="8" fill="#e6edf3">9.18</text>
  <text x="800" y="78" font-family="monospace" font-size="10" font-weight="bold" fill="#e6edf3">Trees</text>
  <rect x="800" y="90" width="10" height="10" fill="#4C9BE8" rx="1"/>
  <text x="816" y="99" font-family="monospace" font-size="10" fill="#e6edf3">AVL</text>
  <rect x="800" y="108" width="10" height="10" fill="#4CAF50" rx="1"/>
  <text x="816" y="117" font-family="monospace" font-size="10" fill="#e6edf3">RBT</text>
  <rect x="800" y="126" width="10" height="10" fill="#FFA726" rx="1"/>
  <text x="816" y="135" font-family="monospace" font-size="10" fill="#e6edf3">Treap</text>
  <text x="800" y="210" font-family="monospace" font-size="10" font-weight="bold" fill="#e6edf3">Scale</text>
  <rect x="800" y="222" width="10" height="10" fill="#C0C0C0" opacity="0.5" rx="1"/>
  <text x="816" y="231" font-family="monospace" font-size="10" fill="#e6edf3">1k</text>
  <rect x="800" y="240" width="10" height="10" fill="#C0C0C0" opacity="0.75" rx="1"/>
  <text x="816" y="249" font-family="monospace" font-size="10" fill="#e6edf3">10k</text>
  <rect x="800" y="258" width="10" height="10" fill="#C0C0C0" opacity="1.0" rx="1"/>
  <text x="816" y="267" font-family="monospace" font-size="10" fill="#e6edf3">100k</text>
</svg>