<svg xmlns="http://www.w3.org/2000/svg" viewBox="0 0 980 520">
  <rect width="980" height="520" fill="#0d1117" rx="0"/>
  <text x="420" y="36" text-anchor="middle" font-family="monospace" font-size="16" font-weight="bold" fill="#e6edf3">ChaosTree — Single-Thread Latency</text>
  <text x="22" y="250" text-anchor="middle" font-family="monospace" font-size="12" fill="#e6edf3" transform="rotate(-90, 22, 250)">Latency (ns/op)</text>
  <line x1="80" y1="440.00" x2="760" y2="440.00" stroke="#30363d" stroke-width="1" opacity="1"/>
  <text x="72" y="444.00" text-anchor="end" font-family="monospace" font-size="10" fill="#e6edf3">0</text>
  <line x1="80" y1="313.33" x2="760" y2="313.33" stroke="#30363d" stroke-width="1" opacity="0.4"/>
  <text x="72" y="317.33" text-anchor="end" font-family="monospace" font-size="10" fill="#e6edf3">500</text>
  <line x1="80" y1="186.67" x2="760" y2="186.67" stroke="#30363d" stroke-width="1" opacity="0.4"/>
  <text x="72" y="190.67" text-anchor="end" font-family="monospace" font-size="10" fill="#e6edf3">1000</text>
  <line x1="80" y1="60.00" x2="760" y2="60.00" stroke="#30363d" stroke-width="1" opacity="0.4"/>
  <text x="72" y="64.00" text-anchor="end" font-family="monospace" font-size="10" fill="#e6edf3">1500</text>
  <line x1="80" y1="60" x2="80" y2="440" stroke="#484f58" stroke-width="1"/>
  <line x1="80" y1="440" x2="760" y2="440" stroke="#484f58" stroke-width="1"/>
  <text x="148.00" y="460" text-anchor="middle" font-family="monospace" font-size="11" fill="#e6edf3">AVL</text>
  <rect x="119.00" y="406.57" width="18" height="33.43" fill="#4C9BE8" opacity="0.5" rx="2"/>
  <text x="128.00" y="401.57" text-anchor="middle" font-family="monospace" font-size="8" fill="#e6edf3">131.98</text>
  <rect x="139.00" y="394.98" width="18" height="45.02" fill="#4C9BE8" opacity="0.75" rx="2"/>
  <text x="148.00" y="389.98" text-anchor="middle" font-family="monospace" font-size="8" fill="#e6edf3">177.71</text>
  <rect x="159.00" y="374.61" width="18" height="65.39" fill="#4C9BE8" opacity="1.0" rx="2"/>
  <text x="168.00" y="369.61" text-anchor="middle" font-family="monospace" font-size="8" fill="#e6edf3">258.12</text>
  <text x="284.00" y="460" text-anchor="middle" font-family="monospace" font-size="11" fill="#e6edf3">BST</text>
  <rect x="255.00" y="417.76" width="18" height="22.24" fill="#EF5350" opacity="0.5" rx="2"/>
  <text x="264.00" y="412.76" text-anchor="middle" font-family="monospace" font-size="8" fill="#e6edf3">87.79</text>
  <rect x="275.00" y="415.10" width="18" height="24.90" fill="#EF5350" opacity="0.75" rx="2"/>
  <text x="284.00" y="410.10" text-anchor="middle" font-family="monospace" font-size="8" fill="#e6edf3">98.28</text>
  <rect x="295.00" y="416.64" width="18" height="23.36" fill="#EF5350" opacity="1.0" rx="2"/>
  <text x="304.00" y="411.64" text-anchor="middle" font-family="monospace" font-size="8" fill="#e6edf3">92.21</text>
  <text x="420.00" y="460" text-anchor="middle" font-family="monospace" font-size="11" fill="#e6edf3">RBT</text>
  <rect x="391.00" y="419.10" width="18" height="20.90" fill="#4CAF50" opacity="0.5" rx="2"/>
  <text x="400.00" y="414.10" text-anchor="middle" font-family="monospace" font-size="8" fill="#e6edf3">82.50</text>
  <rect x="411.00" y="413.97" width="18" height="26.03" fill="#4CAF50" opacity="0.75" rx="2"/>
  <text x="420.00" y="408.97" text-anchor="middle" font-family="monospace" font-size="8" fill="#e6edf3">102.76</text>
  <rect x="431.00" y="404.47" width="18" height="35.53" fill="#4CAF50" opacity="1.0" rx="2"/>
  <text x="440.00" y="399.47" text-anchor="middle" font-family="monospace" font-size="8" fill="#e6edf3">140.25</text>
  <text x="556.00" y="460" text-anchor="middle" font-family="monospace" font-size="11" fill="#e6edf3">Splay</text>
  <rect x="527.00" y="295.54" width="18" height="144.46" fill="#CE93D8" opacity="0.5" rx="2"/>
  <text x="536.00" y="290.54" text-anchor="middle" font-family="monospace" font-size="8" fill="#e6edf3">570.23</text>
  <rect x="547.00" y="235.31" width="18" height="204.69" fill="#CE93D8" opacity="0.75" rx="2"/>
  <text x="556.00" y="230.31" text-anchor="middle" font-family="monospace" font-size="8" fill="#e6edf3">808.00</text>
  <rect x="567.00" y="117.80" width="18" height="322.20" fill="#CE93D8" opacity="1.0" rx="2"/>
  <text x="576.00" y="112.80" text-anchor="middle" font-family="monospace" font-size="8" fill="#e6edf3">1271.85</text>
  <text x="692.00" y="460" text-anchor="middle" font-family="monospace" font-size="11" fill="#e6edf3">Treap</text>
  <rect x="663.00" y="413.07" width="18" height="26.93" fill="#FFA726" opacity="0.5" rx="2"/>
  <text x="672.00" y="408.07" text-anchor="middle" font-family="monospace" font-size="8" fill="#e6edf3">106.28</text>
  <rect x="683.00" y="413.51" width="18" height="26.49" fill="#FFA726" opacity="0.75" rx="2"/>
  <text x="692.00" y="408.51" text-anchor="middle" font-family="monospace" font-size="8" fill="#e6edf3">104.56</text>
  <rect x="703.00" y="417.59" width="18" height="22.41" fill="#FFA726" opacity="1.0" rx="2"/>
  <text x="712.00" y="412.59" text-anchor="middle" font-family="monospace" font-size="8" fill="#e6edf3">88.48</text>
  <text x="800" y="78" font-family="monospace" font-size="10" font-weight="bold" fill="#e6edf3">Trees</text>
  <rect x="800" y="90" width="10" height="10" fill="#4C9BE8" rx="1"/>
  <text x="816" y="99" font-family="monospace" font-size="10" fill="#e6edf3">AVL</text>
  <rect x="800" y="108" width="10" height="10" fill="#EF5350" rx="1"/>
  <text x="816" y="117" font-family="monospace" font-size="10" fill="#e6edf3">BST</text>
  <rect x="800" y="126" width="10" height="10" fill="#4CAF50" rx="1"/>
  <text x="816" y="135" font-family="monospace" font-size="10" fill="#e6edf3">RBT</text>
  <rect x="800" y="144" width="10" height="10" fill="#CE93D8" rx="1"/>
  <text x="816" y="153" font-family="monospace" font-size="10" fill="#e6edf3">Splay</text>
  <rect x="800" y="162" width="10" height="10" fill="#FFA726" rx="1"/>
  <text x="816" y="171" font-family="monospace" font-size="10" fill="#e6edf3">Treap</text>
  <text x="800" y="210" font-family="monospace" font-size="10" font-weight="bold" fill="#e6edf3">Scale</text>
  <rect x="800" y="222" width="10" height="10" fill="#C0C0C0" opacity="0.5" rx="1"/>
  <text x="816" y="231" font-family="monospace" font-size="10" fill="#e6edf3">1k</text>
  <rect x="800" y="240" width="10" height="10" fill="#C0C0C0" opacity="0.75" rx="1"/>
  <text x="816" y="249" font-family="monospace" font-size="10" fill="#e6edf3">10k</text>
  <rect x="800" y="258" width="10" height="10" fill="#C0C0C0" opacity="1.0" rx="1"/>
  <text x="816" y="267" font-family="monospace" font-size="10" fill="#e6edf3">100k</text>
</svg>