<svg xmlns="http://www.w3.org/2000/svg" viewBox="0 0 980 520">
  <rect width="980" height="520" fill="#0d1117" rx="0"/>
  <text x="420" y="36" text-anchor="middle" font-family="monospace" font-size="16" font-weight="bold" fill="#e6edf3">ChaosTree — Read-Heavy (8 Thr) IPC</text>
  <text x="22" y="250" text-anchor="middle" font-family="monospace" font-size="12" fill="#e6edf3" transform="rotate(-90, 22, 250)">Instructions / Cycle</text>
  <line x1="80" y1="440.00" x2="760" y2="440.00" stroke="#30363d" stroke-width="1" opacity="1"/>
  <text x="72" y="444.00" text-anchor="end" font-family="monospace" font-size="10" fill="#e6edf3">0</text>
  <line x1="80" y1="345.00" x2="760" y2="345.00" stroke="#30363d" stroke-width="1" opacity="0.4"/>
  <text x="72" y="349.00" text-anchor="end" font-family="monospace" font-size="10" fill="#e6edf3">0.5</text>
  <line x1="80" y1="250.00" x2="760" y2="250.00" stroke="#30363d" stroke-width="1" opacity="0.4"/>
  <text x="72" y="254.00" text-anchor="end" font-family="monospace" font-size="10" fill="#e6edf3">1</text>
  <line x1="80" y1="155.00" x2="760" y2="155.00" stroke="#30363d" stroke-width="1" opacity="0.4"/>
  <text x="72" y="159.00" text-anchor="end" font-family="monospace" font-size="10" fill="#e6edf3">1.5</text>
  <line x1="80" y1="60.00" x2="760" y2="60.00" stroke="#30363d" stroke-width="1" opacity="0.4"/>
  <text x="72" y="64.00" text-anchor="end" font-family="monospace" font-size="10" fill="#e6edf3">2</text>
  <line x1="80" y1="60" x2="80" y2="440" stroke="#484f58" stroke-width="1"/>
  <line x1="80" y1="440" x2="760" y2="440" stroke="#484f58" stroke-width="1"/>
  <text x="193.33" y="460" text-anchor="middle" font-family="monospace" font-size="11" fill="#e6edf3">AVL</text>
  <rect x="164.33" y="271.47" width="18" height="168.53" fill="#4C9BE8" opacity="0.5" rx="2"/>
  <text x="173.33" y="266.47" text-anchor="middle" font-family="monospace" font-size="8" fill="#e6edf3">0.89</text>
  <rect x="184.33" y="218.46" width="18" height="221.54" fill="#4C9BE8" opacity="0.75" rx="2"/>
  <text x="193.33" y="213.46" text-anchor="middle" font-family="monospace" font-size="8" fill="#e6edf3">1.17</text>
  <rect x="204.33" y="192.52" width="18" height="247.48" fill="#4C9BE8" opacity="1.0" rx="2"/>
  <text x="213.33" y="187.52" text-anchor="middle" font-family="monospace" font-size="8" fill="#e6edf3">1.30</text>
  <text x="420.00" y="460" text-anchor="middle" font-family="monospace" font-size="11" fill="#e6edf3">RBT</text>
  <rect x="391.00" y="268.18" width="18" height="171.82" fill="#4CAF50" opacity="0.5" rx="2"/>
  <text x="400.00" y="263.18" text-anchor="middle" font-family="monospace" font-size="8" fill="#e6edf3">0.90</text>
  <rect x="411.00" y="224.44" width="18" height="215.56" fill="#4CAF50" opacity="0.75" rx="2"/>
  <text x="420.00" y="219.44" text-anchor="middle" font-family="monospace" font-size="8" fill="#e6edf3">1.13</text>
  <rect x="431.00" y="145.22" width="18" height="294.78" fill="#4CAF50" opacity="1.0" rx="2"/>
  <text x="440.00" y="140.22" text-anchor="middle" font-family="monospace" font-size="8" fill="#e6edf3">1.55</text>
  <text x="646.67" y="460" text-anchor="middle" font-family="monospace" font-size="11" fill="#e6edf3">Treap</text>
  <rect x="617.67" y="277.54" width="18" height="162.46" fill="#FFA726" opacity="0.5" rx="2"/>
  <text x="626.67" y="272.54" text-anchor="middle" font-family="monospace" font-size="8" fill="#e6edf3">0.86</text>
  <rect x="637.67" y="248.25" width="18" height="191.75" fill="#FFA726" opacity="0.75" rx="2"/>
  <text x="646.67" y="243.25" text-anchor="middle" font-family="monospace" font-size="8" fill="#e6edf3">1.01</text>
  <rect x="657.67" y="118.79" width="18" height="321.21" fill="#FFA726" opacity="1.0" rx="2"/>
  <text x="666.67" y="113.79" text-anchor="middle" font-family="monospace" font-size="8" fill="#e6edf3">1.69</text>
  <text x="800" y="78" font-family="monospace" font-size="10" font-weight="bold" fill="#e6edf3">Trees</text>
  <rect x="800" y="90" width="10" height="10" fill="#4C9BE8" rx="1"/>
  <text x="816" y="99" font-family="monospace" font-size="10" fill="#e6edf3">AVL</text>
  <rect x="800" y="108" width="10" height="10" fill="#4CAF50" rx="1"/>
  <text x="816" y="117" font-family="monospace" font-size="10" fill="#e6edf3">RBT</text>
  <rect x="800" y="126" width="10" height="10" fill="#FFA726" rx="1"/>
  <text x="816" y="135" font-family="monospace" font-size="10" fill="#e6edf3">Treap</text>
  <text x="800" y="210" font-family="monospace" font-size="10" font-weight="bold" fill="#e6edf3">Scale</text>
  <rect x="800" y="222" width="10" height="10" fill="#C0C0C0" opacity="0.5" rx="1"/>
  <text x="816" y="231" font-family="monospace" font-size="10" fill="#e6edf3">1k</text>
  <rect x="800" y="240" width="10" height="10" fill="#C0C0C0" opacity="0.75" rx="1"/>
  <text x="816" y="249" font-family="monospace" font-size="10" fill="#e6edf3">10k</text>
  <rect x="800" y="258" width="10" height="10" fill="#C0C0C0" opacity="1.0" rx="1"/>
  <text x="816" y="267" font-family="monospace" font-size="10" fill="#e6edf3">100k</text>
</svg>